<?xml version="1.0" encoding="UTF-8" standalone="no"?>
<!-- Created with Inkscape (http://www.inkscape.org/) -->

<svg
   xmlns:dc="http://purl.org/dc/elements/1.1/"
   xmlns:cc="http://creativecommons.org/ns#"
   xmlns:rdf="http://www.w3.org/1999/02/22-rdf-syntax-ns#"
   xmlns:svg="http://www.w3.org/2000/svg"
   xmlns="http://www.w3.org/2000/svg"
   xmlns:sodipodi="http://sodipodi.sourceforge.net/DTD/sodipodi-0.dtd"
   xmlns:inkscape="http://www.inkscape.org/namespaces/inkscape"
   width="11in"
   height="8.5in"
   viewBox="0 0 990 764.99999"
   id="svg3370"
   version="1.1"
   inkscape:version="0.91 r13725"
   sodipodi:docname="fish.svg">
  <defs
     id="defs3372">
    <inkscape:path-effect
       effect="powerstroke"
       id="path-effect4179"
       is_visible="true"
       offset_points="4.9917742,0.17615891"
       sort_points="true"
       interpolator_type="Linear"
       interpolator_beta="0.2"
       start_linecap_type="zerowidth"
       linejoin_type="round"
       miter_limit="4"
       end_linecap_type="zerowidth"
       cusp_linecap_type="round" />
    <inkscape:path-effect
       effect="spiro"
       id="path-effect4177"
       is_visible="true" />
    <inkscape:path-effect
       effect="powerstroke"
       id="path-effect4143"
       is_visible="true"
       offset_points="0,0.5"
       sort_points="true"
       interpolator_type="CubicBezierJohan"
       interpolator_beta="0.2"
       start_linecap_type="zerowidth"
       linejoin_type="round"
       miter_limit="4"
       end_linecap_type="zerowidth"
       cusp_linecap_type="round" />
    <inkscape:path-effect
       effect="spiro"
       id="path-effect4141"
       is_visible="true" />
  </defs>
  <sodipodi:namedview
     id="base"
     pagecolor="#ffffff"
     bordercolor="#666666"
     borderopacity="1.0"
     inkscape:pageopacity="0.0"
     inkscape:pageshadow="2"
     inkscape:zoom="0.84313725"
     inkscape:cx="495"
     inkscape:cy="386.98907"
     inkscape:document-units="px"
     inkscape:current-layer="layer1"
     showgrid="false"
     units="in"
     inkscape:window-width="1520"
     inkscape:window-height="880"
     inkscape:window-x="1581"
     inkscape:window-y="88"
     inkscape:window-maximized="0"
     inkscape:object-nodes="false" />
  <metadata
     id="metadata3375">
    <rdf:RDF>
      <cc:Work
         rdf:about="">
        <dc:format>image/svg+xml</dc:format>
        <dc:type
           rdf:resource="http://purl.org/dc/dcmitype/StillImage" />
        <dc:title></dc:title>
      </cc:Work>
    </rdf:RDF>
  </metadata>
  <g
     inkscape:label="Layer 1"
     inkscape:groupmode="layer"
     id="layer1"
     transform="translate(0,-287.36221)">
    <g
       id="g4185"
       transform="matrix(1.4186233,0,0,1.4186233,-251.03666,-180.68425)">
      <path
         sodipodi:nodetypes="sscccsssszcsssss"
         inkscape:connector-curvature="0"
         id="path4149"
         transform="translate(0,287.36221)"
         d="m 807.63281,178.48047 c -37.92557,1.12698 -70.81172,63.41093 -112.58789,85.79101 -11.27326,6.03925 -31.41345,7.65179 -50.97253,-4.01171 C 604.89641,208.072 532.28957,191.6083 438.59961,191.5332 c -132.69563,3.5e-4 -207.39996,33.09736 -207.39896,114.46732 1.2e-4,10.17115 -5.01256,17.75187 -11.08201,24.60048 -6.06945,6.84861 -13.19568,12.96512 -17.42266,20.20785 -4.22697,7.24273 28.27744,28.01239 15.83954,25.83185 -38.67243,-6.77983 2.04375,26.82489 25.23792,46.00582 44.54449,36.83706 97.26375,34.09495 165.3595,52.21937 68.09575,18.12442 175.47637,6.10046 212.72435,-48.84987 34.70538,-48.64777 73.34848,-28.62841 82.19974,-23.13581 47.72718,29.6168 65.83087,120.04473 115.34336,93.52018 49.5125,-26.52455 4.53638,-100.53257 5.09688,-156.01758 0.56251,-55.68401 52.53851,-125.9789 4.81132,-155.5957 -7.45737,-4.62763 -14.65252,-6.51534 -21.67578,-6.30664 z"
         style="opacity:1;fill:#ff8c00;fill-opacity:1;stroke:#000000;stroke-width:2;stroke-linejoin:miter;stroke-miterlimit:4;stroke-dasharray:none;stroke-dashoffset:0;stroke-opacity:1" />
      <path
         transform="matrix(0.46609673,0,0,0.90060233,436.21022,64.055003)"
         sodipodi:type="star"
         style="opacity:1;fill:#ffa500;fill-opacity:1;stroke:#000000;stroke-width:2;stroke-linejoin:miter;stroke-miterlimit:4;stroke-dasharray:none;stroke-dashoffset:0;stroke-opacity:1"
         id="path4153"
         sodipodi:sides="3"
         sodipodi:cx="734.39996"
         sodipodi:cy="625.09552"
         sodipodi:r1="180.00031"
         sodipodi:r2="83.340141"
         sodipodi:arg1="1.0789872"
         sodipodi:arg2="2.1261847"
         inkscape:flatsided="false"
         inkscape:rounded="0.36"
         inkscape:randomized="0"
         d="m 819.39995,783.76219 c -49.51249,26.52455 -81.21584,-58.2361 -128.94302,-87.85291 -47.72719,-29.61681 -137.75164,-20.39359 -135.96633,-76.53494 1.78532,-56.14136 91.04187,-41.21694 140.55436,-67.74149 49.5125,-26.52455 86.53719,-109.09962 134.26437,-79.48282 47.72719,29.61681 -9.82602,99.45304 -11.61133,155.59439 -1.78532,56.14136 51.21445,129.49322 1.70195,156.01777 z"
         inkscape:transform-center-x="19.809112"
         inkscape:transform-center-y="2.5762396" />
      <ellipse
         ry="21.569057"
         rx="22.702389"
         cy="575.22888"
         cx="310.53333"
         id="path4156"
         style="opacity:1;fill:#000000;fill-opacity:1;stroke:#000000;stroke-width:1.92855382;stroke-linejoin:miter;stroke-miterlimit:4;stroke-dasharray:none;stroke-dashoffset:0;stroke-opacity:1" />
      <path
         sodipodi:nodetypes="scscs"
         inkscape:connector-curvature="0"
         id="rect4167"
         d="m 385.44521,650.33231 c 0.56732,-18.23115 23.42492,-26.82491 23.42492,-26.82491 0,0 66.47609,13.27601 74.95131,52.28465 7.30932,33.64231 -78.95825,49.49158 -78.95825,49.49158 0,0 -19.95579,-57.6684 -19.41798,-74.95132 z"
         style="opacity:1;fill:#ffa500;fill-opacity:1;stroke:#000000;stroke-width:2;stroke-linejoin:miter;stroke-miterlimit:4;stroke-dasharray:none;stroke-dashoffset:0;stroke-opacity:1" />
      <path
         sodipodi:nodetypes="ccccc"
         inkscape:connector-curvature="0"
         id="rect4170"
         d="m 409.48408,403.31297 c 151.24774,-28.3081 213.7543,10.32428 221.43181,66.86666 l 11.33333,75.23182 c -122.33783,-70.99118 -216.52453,-67.31281 -322.29847,-54.4 z"
         style="opacity:1;fill:#ffa500;fill-opacity:1;stroke:#000000;stroke-width:2.70152259;stroke-linejoin:miter;stroke-miterlimit:4;stroke-dasharray:none;stroke-dashoffset:0;stroke-opacity:1" />
      <path
         style="opacity:1;fill:#ffa500;fill-opacity:1;stroke:#000000;stroke-width:2.70152259;stroke-linejoin:miter;stroke-miterlimit:4;stroke-dasharray:none;stroke-dashoffset:0;stroke-opacity:1"
         d="m 395.88408,793.37153 c 151.24774,28.3081 216.02097,4.40905 223.69848,-52.13333 l 12.46666,-44.63183 c -49.30993,56.06931 -88.15353,69.92028 -138.92137,71.33708 -39.69213,1.10771 -86.67315,-1.86067 -151.64377,-21.47041 z"
         id="path4173"
         inkscape:connector-curvature="0"
         sodipodi:nodetypes="cccscc" />
      <path
         sodipodi:nodetypes="cscccccccccc"
         inkscape:connector-curvature="0"
         id="path4182"
         d="m 336.40944,711.58777 c -11.39332,-3.72968 -12.06705,-2.18926 -9.75943,-10.13133 2.83778,-9.76672 22.88003,-33.01636 25.3373,-42.88441 4.7503,-20.00874 8.68897,-40.27337 11.42574,-60.62376 0.16305,-6.76034 0.0169,-13.53756 0.3704,-20.28752 1.09856,-5.32592 2.09218,-10.67646 3.31191,-15.97523 0.65132,23.35434 -0.54405,46.95655 -3.70326,70.41047 -1.85455,15.94603 -6.63049,31.404 -11.20813,46.71127 -3.50609,11.88738 -8.75136,23.24166 -15.75689,32.8586 l -0.0177,-0.078 0.24728,-3.21474 z"
         style="opacity:1;fill:#000000;fill-opacity:1;stroke:#000000;stroke-width:0.44766486;stroke-linejoin:miter;stroke-miterlimit:4;stroke-dasharray:none;stroke-dashoffset:0;stroke-opacity:1" />
    </g>
  </g>
</svg>
